<mxfile host="app.diagrams.net" agent="Mozilla/5.0 (Macintosh; Intel Mac OS X 10_15_7) AppleWebKit/537.36 (KHTML, like Gecko) Chrome/135.0.0.0 Safari/537.36" version="26.2.13">
  <diagram name="Страница — 1" id="jWtsX8xK8c6A2QfMTuGV">
    <mxGraphModel dx="862" dy="585" grid="1" gridSize="10" guides="1" tooltips="1" connect="1" arrows="1" fold="1" page="1" pageScale="1" pageWidth="827" pageHeight="1169" math="0" shadow="0">
      <root>
        <mxCell id="0" />
        <mxCell id="1" parent="0" />
        <mxCell id="fk1CAhIEji6ks_LMP0T5-3" value="" style="edgeStyle=orthogonalEdgeStyle;rounded=0;orthogonalLoop=1;jettySize=auto;html=1;" edge="1" parent="1" source="fk1CAhIEji6ks_LMP0T5-1" target="fk1CAhIEji6ks_LMP0T5-2">
          <mxGeometry relative="1" as="geometry" />
        </mxCell>
        <mxCell id="fk1CAhIEji6ks_LMP0T5-6" value="" style="edgeStyle=orthogonalEdgeStyle;rounded=0;orthogonalLoop=1;jettySize=auto;html=1;" edge="1" parent="1" source="fk1CAhIEji6ks_LMP0T5-1" target="fk1CAhIEji6ks_LMP0T5-5">
          <mxGeometry relative="1" as="geometry" />
        </mxCell>
        <mxCell id="fk1CAhIEji6ks_LMP0T5-1" value="init&lt;br&gt;room_id&lt;div&gt;user_id&lt;/div&gt;" style="rounded=0;whiteSpace=wrap;html=1;" vertex="1" parent="1">
          <mxGeometry x="80" y="120" width="80" height="60" as="geometry" />
        </mxCell>
        <mxCell id="fk1CAhIEji6ks_LMP0T5-8" value="" style="edgeStyle=orthogonalEdgeStyle;rounded=0;orthogonalLoop=1;jettySize=auto;html=1;" edge="1" parent="1" source="fk1CAhIEji6ks_LMP0T5-2" target="fk1CAhIEji6ks_LMP0T5-7">
          <mxGeometry relative="1" as="geometry" />
        </mxCell>
        <mxCell id="fk1CAhIEji6ks_LMP0T5-2" value="checkGameStatus&lt;div&gt;&lt;br&gt;&lt;/div&gt;" style="whiteSpace=wrap;html=1;rounded=0;" vertex="1" parent="1">
          <mxGeometry x="255" y="120" width="100" height="60" as="geometry" />
        </mxCell>
        <mxCell id="fk1CAhIEji6ks_LMP0T5-5" value="user_id: ...,&lt;div&gt;game&lt;span style=&quot;background-color: transparent; color: light-dark(rgb(0, 0, 0), rgb(255, 255, 255));&quot;&gt;_id: ...,&lt;/span&gt;&lt;div&gt;question_id: ...,&lt;/div&gt;&lt;div&gt;answer_id: ...,&lt;/div&gt;&lt;div&gt;answer_time: ...,&lt;/div&gt;&lt;div&gt;&lt;br&gt;&lt;/div&gt;&lt;/div&gt;" style="whiteSpace=wrap;html=1;rounded=0;" vertex="1" parent="1">
          <mxGeometry x="60" y="322.5" width="120" height="87.5" as="geometry" />
        </mxCell>
        <mxCell id="fk1CAhIEji6ks_LMP0T5-9" value="" style="edgeStyle=orthogonalEdgeStyle;rounded=0;orthogonalLoop=1;jettySize=auto;html=1;" edge="1" parent="1" source="fk1CAhIEji6ks_LMP0T5-7" target="fk1CAhIEji6ks_LMP0T5-5">
          <mxGeometry relative="1" as="geometry" />
        </mxCell>
        <mxCell id="fk1CAhIEji6ks_LMP0T5-7" value="game_status: ...,&lt;div&gt;question_number: ...,&lt;/div&gt;&lt;div&gt;&lt;span style=&quot;background-color: transparent; color: light-dark(rgb(0, 0, 0), rgb(255, 255, 255));&quot;&gt;quesiton: {&lt;/span&gt;&lt;/div&gt;&lt;div&gt;options:&lt;/div&gt;&lt;div&gt;....&lt;/div&gt;&lt;div&gt;},&lt;/div&gt;&lt;div&gt;title: ...,&lt;/div&gt;&lt;div&gt;},&lt;/div&gt;&lt;div&gt;end_time: ...,&lt;/div&gt;&lt;div&gt;e&amp;nbsp;&lt;/div&gt;&lt;div&gt;&lt;br&gt;&lt;/div&gt;&lt;div&gt;&lt;br&gt;&lt;/div&gt;&lt;div&gt;&lt;br&gt;&lt;/div&gt;" style="whiteSpace=wrap;html=1;rounded=0;" vertex="1" parent="1">
          <mxGeometry x="220" y="270.63" width="170" height="191.25" as="geometry" />
        </mxCell>
      </root>
    </mxGraphModel>
  </diagram>
</mxfile>
